<svg width="34" height="18" viewBox="0 0 34 18" fill="none" xmlns="http://www.w3.org/2000/svg">
<rect x="0.5" y="0.5" width="33" height="17" rx="8.5" fill="black"/>
<rect x="0.5" y="0.5" width="33" height="17" rx="8.5" stroke="black"/>
<path d="M8.876 8.56L11.108 4.3H12.44L9.44 9.736V13H8.3V9.736L5.3 4.3H6.632L8.876 8.56ZM14.2098 5.38C14.7698 4.556 15.5778 4.144 16.6338 4.144C17.6898 4.144 18.4938 4.556 19.0458 5.38C19.6058 6.196 19.8858 7.284 19.8858 8.644C19.8858 10.004 19.6058 11.096 19.0458 11.92C18.4938 12.744 17.6898 13.156 16.6338 13.156C15.5778 13.156 14.7698 12.744 14.2098 11.92C13.6578 11.096 13.3818 10.004 13.3818 8.644C13.3818 7.284 13.6578 6.196 14.2098 5.38ZM18.7098 8.644C18.7098 6.348 18.0178 5.2 16.6338 5.2C15.2498 5.2 14.5578 6.348 14.5578 8.644C14.5578 10.948 15.2498 12.1 16.6338 12.1C18.0178 12.1 18.7098 10.948 18.7098 8.644ZM21.4636 4.3H22.6036V9.592C22.6036 10.496 22.7236 11.14 22.9636 11.524C23.2036 11.908 23.6756 12.1 24.3796 12.1C25.0916 12.1 25.5676 11.892 25.8076 11.476C26.0556 11.06 26.1796 10.388 26.1796 9.46V4.3H27.3196V9.364C27.3196 10.684 27.1036 11.648 26.6716 12.256C26.2396 12.856 25.4756 13.156 24.3796 13.156C23.2996 13.156 22.5436 12.88 22.1116 12.328C21.6796 11.776 21.4636 10.82 21.4636 9.46V4.3Z" fill="white"/>
</svg>
