<svg width="18" height="24" viewBox="0 0 18 24" fill="none" xmlns="http://www.w3.org/2000/svg">
<path d="M17.0992 6.38927C16.6043 6.38927 16.2034 6.79014 16.2034 7.28505V21.2663C16.2034 21.7266 15.8322 22.0978 15.372 22.0978H2.61806C2.16274 22.0978 1.78661 21.7266 1.78661 21.2663V7.2803C1.78661 6.78539 1.38574 6.38452 0.895776 6.38452C0.405809 6.38452 0 6.78539 0 7.2803V21.2616C0 22.7067 1.17292 23.8796 2.61806 23.8796H15.372C16.8171 23.8796 17.99 22.7067 17.99 21.2616V7.2803C17.99 6.79033 17.5891 6.38927 17.0992 6.38927Z" fill="black"/>
<path d="M17.0994 3.68212H14.3081V2.78137C14.3081 1.24714 13.061 0 11.5268 0H6.4738C4.93957 0 3.69243 1.24717 3.69243 2.78137V3.68212H0.896206C0.406239 3.68212 0.00537109 4.08298 0.00537109 4.57789C0.00537109 5.0728 0.406239 5.46873 0.896206 5.46873H17.1045C17.5994 5.46873 18.0003 5.06786 18.0003 4.57789C17.9953 4.07307 17.5994 3.68212 17.1045 3.68212H17.0994ZM5.47882 3.68212V2.78137C5.47882 2.23201 5.92422 1.78661 6.47358 1.78661H11.5266C12.0759 1.78661 12.5213 2.23201 12.5213 2.78137V3.68212H5.47381H5.47882Z" fill="black"/>
<path d="M9.89837 18.7074V9.63559C9.89837 9.14562 9.4975 8.74475 9.00753 8.74475C8.51757 8.74475 8.1167 9.14562 8.1167 9.63559V18.7074C8.1167 19.1973 8.51757 19.5982 9.00753 19.5982C9.4975 19.5982 9.89837 19.1973 9.89837 18.7074Z" fill="black"/>
<path d="M6.2163 18.7074V9.63559C6.2163 9.14562 5.81543 8.74475 5.32052 8.74475C4.82561 8.74475 4.42969 9.14562 4.42969 9.63559V18.7074C4.42969 19.1973 4.83056 19.5982 5.32052 19.5982C5.81049 19.5982 6.2163 19.1973 6.2163 18.7074Z" fill="black"/>
<path d="M13.5756 18.7074V9.63559C13.5756 9.14562 13.1747 8.74475 12.6848 8.74475C12.1948 8.74475 11.7939 9.14562 11.7939 9.63559V18.7074C11.7939 19.1973 12.1948 19.5982 12.6848 19.5982C13.1747 19.5982 13.5756 19.1973 13.5756 18.7074Z" fill="black"/>
</svg>
