<svg width="56" height="18" viewBox="0 0 56 18" fill="none" xmlns="http://www.w3.org/2000/svg">
<rect x="0.5" y="0.5" width="55" height="17" rx="8.5" stroke="#9F9F9F"/>
<path d="M10.712 10.12C10.848 9.704 10.916 9.212 10.916 8.644C10.916 8.076 10.848 7.588 10.712 7.18C10.584 6.764 10.42 6.444 10.22 6.22C10.02 5.988 9.76 5.808 9.44 5.68C9.128 5.552 8.832 5.472 8.552 5.44C8.28 5.4 7.956 5.38 7.58 5.38H7.268V11.92H7.58C7.956 11.92 8.28 11.904 8.552 11.872C8.832 11.832 9.128 11.748 9.44 11.62C9.76 11.484 10.02 11.304 10.22 11.08C10.42 10.848 10.584 10.528 10.712 10.12ZM6.128 4.3H7.616C10.592 4.3 12.08 5.748 12.08 8.644C12.08 9.444 11.964 10.136 11.732 10.72C11.508 11.296 11.184 11.748 10.76 12.076C10.344 12.396 9.876 12.632 9.356 12.784C8.844 12.928 8.264 13 7.616 13H6.128V4.3ZM14.1018 13V4.3H19.2858V5.38H15.2418V7.972H19.0458V9.052H15.2418V11.92H19.2858V13H14.1018ZM23.1556 4.3V11.92H27.4276V13H22.0156V4.3H23.1556ZM29.6174 13V4.3H34.8014V5.38H30.7574V7.972H34.5614V9.052H30.7574V11.92H34.8014V13H29.6174ZM39.3313 13V5.38H36.7153V4.3H43.0872V5.38H40.4713V13H39.3313ZM45.1331 13V4.3H50.3171V5.38H46.2731V7.972H50.0771V9.052H46.2731V11.92H50.3171V13H45.1331Z" fill="#9F9F9F"/>
</svg>
