<svg width="24" height="24" viewBox="0 0 24 24" fill="none" xmlns="http://www.w3.org/2000/svg">
<path d="M15.7601 8.23791C15.5957 8.06848 15.3714 7.9738 15.1322 7.96881C14.888 7.96881 14.6637 8.05851 14.4894 8.23293L6.08732 16.6397C5.73847 16.9886 5.73847 17.5617 6.08732 17.9105C6.25676 18.0799 6.48102 18.1696 6.72022 18.1696C6.95942 18.1696 7.18867 18.075 7.35311 17.9105L15.7551 9.50848C15.9246 9.33904 16.0193 9.11478 16.0193 8.87061C16.0193 8.62643 15.9246 8.40215 15.7551 8.23771L15.7601 8.23791Z" fill="black"/>
<path d="M0.894422 24C0.934289 24 0.964189 24 1.01402 23.99L7.52221 23.113C7.71657 23.093 7.90095 23.0033 8.03551 22.8638L21.6751 9.22421C21.6751 9.22421 21.69 9.21425 21.695 9.20428L22.9209 7.97836C23.6186 7.28068 24.0023 6.34879 24.0023 5.3621C24.0023 4.37541 23.6186 3.44849 22.9209 2.75579L21.2465 1.08138C20.5489 0.383711 19.6219 0 18.6353 0C17.6486 0 16.7266 0.383711 16.024 1.08138L15.1668 1.93852L15.1469 1.95347C15.1469 1.95347 15.1021 1.98836 15.0821 2.00829L1.13859 15.9617C0.999059 16.1012 0.909358 16.2806 0.884439 16.475L0.00736749 22.9832C-0.0275176 23.2623 0.0621863 23.5364 0.261521 23.7357C0.42597 23.9001 0.660196 24 0.894422 24ZM16.6967 2.93529L17.2947 2.34226C17.6535 1.98346 18.1319 1.78412 18.6402 1.78412C19.1486 1.78412 19.627 1.98346 19.9858 2.34226L21.6602 4.01667C22.3977 4.75421 22.3977 5.9602 21.6602 6.70271L21.0622 7.30071L16.6967 2.93529ZM1.94085 22.0564L2.61859 17.0134L15.4257 4.20624L19.7862 8.56673L6.98385 21.379L1.94085 22.0564Z" fill="black"/>
</svg>
