<svg width="28" height="26" viewBox="0 0 28 26" fill="none" xmlns="http://www.w3.org/2000/svg">
<path d="M11.5 3.5L14 6L15.5 3.5L18 2L22 2.5L26 5.5L27 10.5L24.5 15.5L14 24L5 17L1.5 11V8L2.5 4.5L5.5 2.5L8 1.5L11.5 3.5Z" fill="#FF6565" stroke="#FF6565"/>
<path d="M24.3505 2.64104C23.0754 1.5861 21.4378 1.00634 19.7404 1.00634C17.7798 1.00634 15.8819 1.78593 14.5342 3.1476C14.292 3.39275 14.0648 3.6559 13.8516 3.94171C12.2013 1.74527 9.44365 0.618292 6.71625 1.11672C4.453 1.52743 2.67366 2.77117 1.43108 4.81076C-0.322124 7.69036 -0.46561 10.4677 1.00701 13.0662C1.79415 14.4563 2.8154 15.811 4.12943 17.2075C6.53617 19.7659 9.38498 22.1941 13.0953 24.8465C13.3323 25.0168 13.5862 25.1027 13.8511 25.1027C14.2589 25.1027 14.5342 24.8965 14.6707 24.7954C18.0185 22.405 20.6484 20.2015 22.9476 17.8575C24.2314 16.5493 25.6884 14.9413 26.7538 12.9331C27.2104 12.0751 27.7309 10.9203 27.7001 9.60099C27.6315 6.76206 26.5051 4.42039 24.3505 2.64104ZM25.0099 12.0071C24.0612 13.7929 22.7228 15.2667 21.5377 16.4738C19.4116 18.6418 16.9804 20.6936 13.8476 22.9557C10.4382 20.4891 7.79908 18.2241 5.56836 15.8516C4.36412 14.5719 3.43408 13.3421 2.72478 12.0902C1.60187 10.1093 1.72677 8.1214 3.11864 5.83724C4.05508 4.29897 5.38421 3.3637 7.07003 3.05756C7.39302 2.9983 7.72007 2.96926 8.04248 2.96926C10.0408 2.96926 11.8109 4.073 12.8106 5.98944L12.9803 6.30952C13.1545 6.63658 13.5135 6.82247 13.8679 6.83119C14.2391 6.82422 14.5743 6.61218 14.7375 6.27874C15.0884 5.56305 15.4712 5.00769 15.9383 4.53483C16.9177 3.54669 18.3032 2.97913 19.7404 2.97913C20.9795 2.97913 22.1698 3.39914 23.0928 4.16246C24.81 5.58047 25.6709 7.3755 25.7261 9.64572C25.7453 10.5026 25.3753 11.3193 25.0099 12.0071Z" fill="black"/>
</svg>
