<svg width="28" height="25" viewBox="0 0 28 25" fill="none" xmlns="http://www.w3.org/2000/svg">
<path d="M24.3505 1.64104C23.0754 0.586098 21.4378 0.00634353 19.7404 0.00634353C17.7798 0.00634353 15.8819 0.785933 14.5342 2.1476C14.292 2.39275 14.0648 2.6559 13.8516 2.94171C12.2013 0.745268 9.44365 -0.381708 6.71625 0.116718C4.453 0.527425 2.67366 1.77117 1.43108 3.81076C-0.322124 6.69036 -0.46561 9.46772 1.00701 12.0662C1.79415 13.4563 2.8154 14.811 4.12943 16.2075C6.53617 18.7659 9.38498 21.1941 13.0953 23.8465C13.3323 24.0168 13.5862 24.1027 13.8511 24.1027C14.2589 24.1027 14.5342 23.8965 14.6707 23.7954C18.0185 21.405 20.6484 19.2015 22.9476 16.8575C24.2314 15.5493 25.6884 13.9413 26.7538 11.9331C27.2104 11.0751 27.7309 9.92025 27.7001 8.60099C27.6315 5.76206 26.5051 3.42039 24.3505 1.64104ZM25.0099 11.0071C24.0612 12.7929 22.7228 14.2667 21.5377 15.4738C19.4116 17.6418 16.9804 19.6936 13.8476 21.9557C10.4382 19.4891 7.79908 17.2241 5.56836 14.8516C4.36412 13.5719 3.43408 12.3421 2.72478 11.0902C1.60187 9.10929 1.72677 7.1214 3.11864 4.83724C4.05508 3.29897 5.38421 2.3637 7.07003 2.05756C7.39302 1.9983 7.72007 1.96926 8.04248 1.96926C10.0408 1.96926 11.8109 3.073 12.8106 4.98944L12.9803 5.30952C13.1545 5.63658 13.5135 5.82247 13.8679 5.83119C14.2391 5.82422 14.5743 5.61218 14.7375 5.27874C15.0884 4.56305 15.4712 4.00769 15.9383 3.53483C16.9177 2.54669 18.3032 1.97913 19.7404 1.97913C20.9795 1.97913 22.1698 2.39914 23.0928 3.16246C24.81 4.58047 25.6709 6.3755 25.7261 8.64572C25.7453 9.50257 25.3753 10.3193 25.0099 11.0071Z" fill="black"/>
</svg>
