<svg width="105" height="57" viewBox="0 0 105 57" fill="none" xmlns="http://www.w3.org/2000/svg">
<path d="M0.716064 11.3788V3.45053H3.15573V4.53447H3.20235C3.79284 3.6828 4.55426 3.21825 5.65755 3.21825C7.39795 3.21825 8.42354 4.45704 8.42354 6.22231V11.3788H5.89064V6.73331C5.89064 5.89713 5.47108 5.32419 4.6475 5.32419C3.80838 5.32419 3.24896 6.02101 3.24896 6.99656V11.3788H0.716064ZM13.4631 11.611C10.837 11.611 9.22093 9.79931 9.22093 7.39916C9.22093 5.02998 10.8836 3.21825 13.3078 3.21825C14.4421 3.21825 15.3434 3.58989 16.0271 4.20928C16.975 5.07644 17.4412 6.45459 17.4257 8.06501H11.7072C11.8626 9.13347 12.4531 9.79931 13.4942 9.79931C14.1624 9.79931 14.5975 9.5051 14.8151 9.00959H17.2858C17.1149 9.72189 16.6487 10.4032 15.9494 10.8833C15.2812 11.3478 14.4732 11.611 13.4631 11.611ZM11.7228 6.56298H14.8617C14.7684 5.61841 14.178 5.0145 13.3544 5.0145C12.3909 5.0145 11.8937 5.61841 11.7228 6.56298ZM19.8486 11.3788L17.4089 3.45053H19.9884L20.8586 6.73331C21.0296 7.36819 21.216 8.26631 21.216 8.26631H21.2471C21.2471 8.26631 21.4336 7.35271 21.6045 6.68686L22.4436 3.45053H24.588L25.4582 6.68686C25.6292 7.36819 25.8312 8.2818 25.8312 8.2818H25.8623C25.8623 8.2818 26.0643 7.36819 26.2352 6.73331L27.1209 3.45053H29.6228L27.1831 11.3788H24.8056L23.8732 7.78628C23.7023 7.16689 23.5314 6.36168 23.5314 6.36168H23.5003C23.5003 6.36168 23.3138 7.16689 23.1429 7.78628L22.195 11.3788H19.8486ZM34.4318 11.3788L31.9921 3.45053H34.5716L35.4418 6.73331C35.6128 7.36819 35.7992 8.26631 35.7992 8.26631H35.8303C35.8303 8.26631 36.0168 7.35271 36.1877 6.68686L37.0268 3.45053H39.1713L40.0414 6.68686C40.2124 7.36819 40.4144 8.2818 40.4144 8.2818H40.4455C40.4455 8.2818 40.6475 7.36819 40.8184 6.73331L41.7042 3.45053H44.206L41.7663 11.3788H39.3888L38.4564 7.78628C38.2855 7.16689 38.1146 6.36168 38.1146 6.36168H38.0835C38.0835 6.36168 37.897 7.16689 37.7261 7.78628L36.7782 11.3788H34.4318ZM46.0738 0.0748291C46.8664 0.0748291 47.4724 0.632284 47.4724 1.42201C47.4724 2.21174 46.8664 2.76919 46.0738 2.76919C45.2813 2.76919 44.6753 2.21174 44.6753 1.42201C44.6753 0.632284 45.2813 0.0748291 46.0738 0.0748291ZM44.7996 11.3788V3.45053H47.3325V11.3788H44.7996ZM51.7023 11.4717C50.2261 11.4717 49.1694 10.9916 49.1694 9.28831V5.02998H48.1128V3.45053H49.1694V0.941981H51.6402V3.45053H53.0853V5.02998H51.6402V8.74634C51.6402 9.36574 51.982 9.52059 52.5259 9.52059C52.7435 9.52059 52.9921 9.5051 53.0853 9.5051V11.3478C52.8678 11.4097 52.3861 11.4717 51.7023 11.4717ZM53.9957 11.3788V0.307102H56.5287V4.42607H56.5753C57.1502 3.66731 57.834 3.21825 58.9373 3.21825C60.6777 3.21825 61.7032 4.45704 61.7032 6.22231V11.3788H59.1703V6.73331C59.1703 5.89713 58.7508 5.32419 57.9272 5.32419C57.0881 5.32419 56.5287 6.02101 56.5287 6.99656V11.3788H53.9957ZM68.4251 11.4717C66.9489 11.4717 65.8922 10.9916 65.8922 9.28831V5.02998H64.8355V3.45053H65.8922V0.941981H68.3629V3.45053H69.8081V5.02998H68.3629V8.74634C68.3629 9.36574 68.7048 9.52059 69.2487 9.52059C69.4662 9.52059 69.7148 9.5051 69.8081 9.5051V11.3478C69.5905 11.4097 69.1088 11.4717 68.4251 11.4717ZM74.0248 9.96965C74.9727 9.96965 75.6253 9.39671 75.6253 8.54504V7.60047C75.299 7.7708 74.8328 7.89468 74.32 8.01856C73.3411 8.23534 72.937 8.4831 72.937 9.08701C72.937 9.72189 73.4032 9.96965 74.0248 9.96965ZM73.2167 11.5801C71.6317 11.5801 70.4974 10.7284 70.4974 9.16444C70.4974 7.41465 71.8959 6.88816 73.5431 6.67138C75.0348 6.48556 75.5632 6.33071 75.5632 5.78874C75.5632 5.27774 75.2368 4.93707 74.4754 4.93707C73.6674 4.93707 73.2634 5.29322 73.1857 5.95907H70.8548C70.9169 4.48801 72.0513 3.23374 74.4599 3.23374C75.6564 3.23374 76.4644 3.45053 77.0394 3.8841C77.7231 4.37962 78.0494 5.15386 78.0494 6.14489V10.14C78.0494 10.7749 78.1116 11.131 78.3292 11.2704V11.3788H75.874C75.7496 11.2084 75.6719 10.8987 75.6098 10.4961H75.5787C75.1125 11.162 74.4133 11.5801 73.2167 11.5801ZM82.9604 9.07153C84.0637 9.07153 84.5765 8.20437 84.5765 7.08947C84.5765 6.02101 84.0171 5.12289 82.9604 5.12289C82.0125 5.12289 81.3909 5.89713 81.3909 7.10495C81.3909 8.29728 82.0125 9.07153 82.9604 9.07153ZM82.976 14.1196C80.7849 14.1196 79.3398 13.2215 79.0911 11.5646H81.5463C81.6862 11.9827 82.1058 12.3388 82.9449 12.3388C84.0171 12.3388 84.4677 11.7814 84.4677 10.8213V10.0316H84.4056C83.9394 10.5581 83.3334 10.9452 82.3699 10.9452C80.5829 10.9452 78.9202 9.6135 78.9202 7.18238C78.9202 4.85965 80.2877 3.21825 82.2611 3.21825C83.3178 3.21825 84.0326 3.63634 84.4988 4.30219H84.5299V3.45053H86.954V10.6045C86.954 11.7969 86.5344 12.664 85.8973 13.237C85.1981 13.8563 84.1569 14.1196 82.976 14.1196ZM91.5575 11.6265C89.2266 11.6265 87.7659 10.5581 87.6882 8.80828H90.0813C90.1745 9.59801 90.7029 9.98513 91.542 9.98513C92.3034 9.98513 92.7851 9.70641 92.7851 9.19541C92.7851 8.4831 91.8217 8.40568 90.765 8.21986C89.382 7.98759 87.9058 7.61595 87.9058 5.75777C87.9058 4.08541 89.4597 3.21825 91.34 3.21825C93.5932 3.21825 94.8052 4.1938 94.9295 5.75777H92.5986C92.5054 5.04547 92.0237 4.82868 91.3244 4.82868C90.7028 4.82868 90.2211 5.06095 90.2211 5.55647C90.2211 6.11392 91.1224 6.19134 92.1325 6.37716C93.531 6.60944 95.1782 6.96559 95.1782 8.9941C95.1782 10.7284 93.6398 11.6265 91.5575 11.6265Z" fill="black"/>
<path d="M0.610596 56.1742V18.2142H10.094L21.3888 37.2739C21.9749 38.3357 23.9994 42.1051 23.9994 42.1051H24.106C24.106 42.1051 23.9994 37.5393 23.9994 36.2121V18.2142H33.2164V56.1742H23.733L12.5448 37.3801C11.9054 36.3713 9.8276 32.2833 9.8276 32.2833H9.72105C9.72105 32.2833 9.8276 37.1677 9.8276 38.495V56.1742H0.610596Z" fill="black"/>
<path d="M42.0759 56.1742L31.6335 18.2142H41.1702L45.0062 34.1415C45.8586 37.8048 46.7644 43.5386 46.7644 43.5386H46.8709C46.8709 43.5386 47.8832 38.3357 48.7356 34.5131L52.3052 18.2142H61.0427L64.6123 34.407C65.4648 38.2826 66.4237 43.5386 66.4237 43.5386H66.5303C66.5303 43.5386 67.5958 37.8048 68.4483 34.0353L72.231 18.2142H81.7144L71.272 56.1742H62.055L58.0592 37.9641C57.3666 34.9379 56.7272 30.903 56.7272 30.903H56.6207C56.6207 30.903 55.9814 34.9379 55.342 37.9641L51.3462 56.1742H42.0759Z" fill="black"/>
<path d="M84.134 56.1742V26.1779H73.0522V18.2142H104.752V26.1779H93.5641V56.1742H84.134Z" fill="black"/>
</svg>
