<svg width="106" height="73" viewBox="0 0 106 73" fill="none" xmlns="http://www.w3.org/2000/svg">
<path d="M0.716003 14.3788V6.45053H3.15567V7.53447H3.20229C3.79278 6.6828 4.5542 6.21825 5.65749 6.21825C7.39789 6.21825 8.42348 7.45704 8.42348 9.22231V14.3788H5.89058V9.73331C5.89058 8.89713 5.47102 8.32419 4.64744 8.32419C3.80832 8.32419 3.2489 9.02101 3.2489 9.99656V14.3788H0.716003ZM13.4631 14.611C10.8369 14.611 9.22087 12.7993 9.22087 10.3992C9.22087 8.02998 10.8836 6.21825 13.3077 6.21825C14.4421 6.21825 15.3433 6.58989 16.0271 7.20928C16.975 8.07644 17.4411 9.45459 17.4256 11.065H11.7071C11.8625 12.1335 12.453 12.7993 13.4942 12.7993C14.1624 12.7993 14.5975 12.5051 14.815 12.0096H17.2857C17.1148 12.7219 16.6486 13.4032 15.9494 13.8833C15.2812 14.3478 14.4731 14.611 13.4631 14.611ZM11.7227 9.56298H14.8616C14.7684 8.61841 14.1779 8.0145 13.3543 8.0145C12.3909 8.0145 11.8936 8.61841 11.7227 9.56298ZM19.8485 14.3788L17.4088 6.45053H19.9884L20.8586 9.73331C21.0295 10.3682 21.216 11.2663 21.216 11.2663H21.247C21.247 11.2663 21.4335 10.3527 21.6044 9.68686L22.4436 6.45053H24.588L25.4582 9.68686C25.6291 10.3682 25.8311 11.2818 25.8311 11.2818H25.8622C25.8622 11.2818 26.0642 10.3682 26.2351 9.73331L27.1209 6.45053H29.6227L27.183 14.3788H24.8055L23.8732 10.7863C23.7022 10.1669 23.5313 9.36168 23.5313 9.36168H23.5002C23.5002 9.36168 23.3138 10.1669 23.1428 10.7863L22.1949 14.3788H19.8485ZM34.4317 14.3788L31.9921 6.45053H34.5716L35.4418 9.73331C35.6127 10.3682 35.7992 11.2663 35.7992 11.2663H35.8302C35.8302 11.2663 36.0167 10.3527 36.1876 9.68686L37.0268 6.45053H39.1712L40.0414 9.68686C40.2123 10.3682 40.4143 11.2818 40.4143 11.2818H40.4454C40.4454 11.2818 40.6474 10.3682 40.8184 9.73331L41.7041 6.45053H44.2059L41.7662 14.3788H39.3887L38.4564 10.7863C38.2855 10.1669 38.1145 9.36168 38.1145 9.36168H38.0834C38.0834 9.36168 37.897 10.1669 37.726 10.7863L36.7781 14.3788H34.4317ZM46.0738 3.07483C46.8663 3.07483 47.4723 3.63228 47.4723 4.42201C47.4723 5.21174 46.8663 5.76919 46.0738 5.76919C45.2813 5.76919 44.6753 5.21174 44.6753 4.42201C44.6753 3.63228 45.2813 3.07483 46.0738 3.07483ZM44.7996 14.3788V6.45053H47.3325V14.3788H44.7996ZM51.7023 14.4717C50.226 14.4717 49.1694 13.9916 49.1694 12.2883V8.02998H48.1127V6.45053H49.1694V3.94198H51.6401V6.45053H53.0853V8.02998H51.6401V11.7463C51.6401 12.3657 51.982 12.5206 52.5259 12.5206C52.7434 12.5206 52.992 12.5051 53.0853 12.5051V14.3478C52.8677 14.4097 52.386 14.4717 51.7023 14.4717ZM53.9957 14.3788V3.3071H56.5286V7.42607H56.5752C57.1502 6.66731 57.8339 6.21825 58.9372 6.21825C60.6776 6.21825 61.7032 7.45704 61.7032 9.22231V14.3788H59.1703V9.73331C59.1703 8.89713 58.7507 8.32419 57.9271 8.32419C57.088 8.32419 56.5286 9.02101 56.5286 9.99656V14.3788H53.9957ZM68.425 14.4717C66.9488 14.4717 65.8921 13.9916 65.8921 12.2883V8.02998H64.8354V6.45053H65.8921V3.94198H68.3629V6.45053H69.808V8.02998H68.3629V11.7463C68.3629 12.3657 68.7047 12.5206 69.2486 12.5206C69.4662 12.5206 69.7148 12.5051 69.808 12.5051V14.3478C69.5905 14.4097 69.1088 14.4717 68.425 14.4717ZM74.0247 12.9696C74.9726 12.9696 75.6253 12.3967 75.6253 11.545V10.6005C75.2989 10.7708 74.8328 10.8947 74.32 11.0186C73.341 11.2353 72.937 11.4831 72.937 12.087C72.937 12.7219 73.4032 12.9696 74.0247 12.9696ZM73.2167 14.5801C71.6317 14.5801 70.4973 13.7284 70.4973 12.1644C70.4973 10.4146 71.8958 9.88816 73.543 9.67138C75.0348 9.48556 75.5631 9.33071 75.5631 8.78874C75.5631 8.27774 75.2368 7.93707 74.4753 7.93707C73.6673 7.93707 73.2633 8.29322 73.1856 8.95907H70.8547C70.9169 7.48801 72.0512 6.23374 74.4598 6.23374C75.6563 6.23374 76.4644 6.45053 77.0393 6.8841C77.7231 7.37962 78.0494 8.15386 78.0494 9.14489V13.14C78.0494 13.7749 78.1115 14.131 78.3291 14.2704V14.3788H75.8739C75.7496 14.2084 75.6719 13.8987 75.6097 13.4961H75.5786C75.1125 14.162 74.4132 14.5801 73.2167 14.5801ZM82.9604 12.0715C84.0636 12.0715 84.5764 11.2044 84.5764 10.0895C84.5764 9.02101 84.017 8.12289 82.9604 8.12289C82.0125 8.12289 81.3909 8.89713 81.3909 10.105C81.3909 11.2973 82.0125 12.0715 82.9604 12.0715ZM82.9759 17.1196C80.7849 17.1196 79.3397 16.2215 79.0911 14.5646H81.5463C81.6861 14.9827 82.1057 15.3388 82.9448 15.3388C84.017 15.3388 84.4677 14.7814 84.4677 13.8213V13.0316H84.4055C83.9393 13.5581 83.3333 13.9452 82.3699 13.9452C80.5828 13.9452 78.9201 12.6135 78.9201 10.1824C78.9201 7.85965 80.2876 6.21825 82.2611 6.21825C83.3177 6.21825 84.0326 6.63634 84.4987 7.30219H84.5298V6.45053H86.9539V13.6045C86.9539 14.7969 86.5344 15.664 85.8973 16.237C85.198 16.8563 84.1569 17.1196 82.9759 17.1196ZM91.5574 14.6265C89.2266 14.6265 87.7659 13.5581 87.6882 11.8083H90.0812C90.1745 12.598 90.7028 12.9851 91.5419 12.9851C92.3033 12.9851 92.785 12.7064 92.785 12.1954C92.785 11.4831 91.8216 11.4057 90.7649 11.2199C89.382 10.9876 87.9057 10.616 87.9057 8.75777C87.9057 7.08541 89.4596 6.21825 91.3399 6.21825C93.5931 6.21825 94.8052 7.1938 94.9295 8.75777H92.5986C92.5053 8.04547 92.0236 7.82868 91.3244 7.82868C90.7028 7.82868 90.2211 8.06095 90.2211 8.55647C90.2211 9.11392 91.1224 9.19134 92.1324 9.37716C93.5309 9.60944 95.1781 9.96559 95.1781 11.9941C95.1781 13.7284 93.6397 14.6265 91.5574 14.6265Z" fill="black"/>
<path d="M0.610596 59.1742V21.2142H10.094L21.3888 40.2739C21.9749 41.3357 23.9994 45.1051 23.9994 45.1051H24.106C24.106 45.1051 23.9994 40.5393 23.9994 39.2121V21.2142H33.2164V59.1742H23.733L12.5448 40.3801C11.9054 39.3713 9.8276 35.2833 9.8276 35.2833H9.72105C9.72105 35.2833 9.8276 40.1677 9.8276 41.495V59.1742H0.610596Z" fill="black"/>
<path d="M42.0759 59.1742L31.6335 21.2142H41.1702L45.0061 37.1415C45.8586 40.8048 46.7643 46.5386 46.7643 46.5386H46.8708C46.8708 46.5386 47.8831 41.3357 48.7356 37.5131L52.3052 21.2142H61.0427L64.6123 37.407C65.4647 41.2826 66.4237 46.5386 66.4237 46.5386H66.5302C66.5302 46.5386 67.5958 40.8048 68.4482 37.0353L72.2309 21.2142H81.7143L71.2719 59.1742H62.0549L58.0591 40.9641C57.3665 37.9379 56.7272 33.903 56.7272 33.903H56.6206C56.6206 33.903 55.9813 37.9379 55.342 40.9641L51.3462 59.1742H42.0759Z" fill="black"/>
<path d="M84.134 59.1742V29.1779H73.0523V21.2142H104.752V29.1779H93.5641V59.1742H84.134Z" fill="black"/>
</svg>
